<?xml version="1.0" encoding="utf-8"?>
<svg viewBox="0 0 500 500" xmlns="http://www.w3.org/2000/svg">
  <path d="M 250.796 500.143 C 388.606 500.143 500.296 388.453 500.296 250.643 C 500.296 112.833 388.606 1.143 250.796 1.143 C 112.986 1.143 1.296 112.833 1.296 250.643 C 1.296 388.453 112.986 500.143 250.796 500.143 Z M 171.853 171.7 C 181.014 162.538 195.828 162.538 204.892 171.7 L 250.699 217.507 L 296.505 171.7 C 305.667 162.538 320.481 162.538 329.544 171.7 C 338.608 180.862 338.706 195.675 329.544 204.739 L 283.738 250.546 L 329.544 296.353 C 338.706 305.514 338.706 320.328 329.544 329.391 C 320.383 338.455 305.569 338.553 296.505 329.391 L 250.699 283.586 L 204.892 329.391 C 195.731 338.553 180.917 338.553 171.853 329.391 C 162.789 320.231 162.691 305.416 171.853 296.353 L 217.659 250.546 L 171.853 204.739 C 162.691 195.578 162.691 180.764 171.853 171.7 Z" style="fill: rgb(255, 255, 255);"/>
</svg>